<?xml version="1.0" standalone="no"?>
<!DOCTYPE svg PUBLIC "-//W3C//DTD SVG 20010904//EN"
 "http://www.w3.org/TR/2001/REC-SVG-20010904/DTD/svg10.dtd">
<svg version="1.0" xmlns="http://www.w3.org/2000/svg"
 width="842.000000pt" height="842.000000pt" viewBox="0 0 842.000000 842.000000"
 preserveAspectRatio="xMidYMid meet">

<g transform="translate(0.000000,842.000000) scale(0.100000,-0.100000)"
fill="#000000" stroke="none">
<path d="M3860 7958 c-1531 -144 -2838 -1222 -3263 -2693 -113 -391 -153 -705
-144 -1143 6 -278 17 -397 58 -617 270 -1448 1378 -2614 2816 -2964 477 -116
1033 -134 1531 -50 1460 246 2662 1364 3016 2807 121 493 141 1044 55 1550
-210 1252 -1069 2333 -2249 2831 -340 144 -701 235 -1085 276 -155 16 -576 18
-735 3z m-813 -2286 c315 -73 542 -212 684 -418 48 -71 97 -182 126 -289 l28
-100 0 -655 c0 -689 0 -693 -47 -840 -110 -346 -420 -578 -863 -645 -81 -12
-219 -15 -711 -15 -588 0 -613 1 -635 19 l-24 19 0 1457 0 1457 24 19 c24 20
40 20 675 16 622 -3 655 -4 743 -25z m1829 1 c9 -16 147 -334 308 -708 237
-551 297 -680 312 -680 15 0 75 131 315 685 163 377 304 695 313 708 l17 22
353 0 c267 0 356 -3 369 -13 17 -11 18 -107 24 -1484 5 -1192 4 -1475 -7
-1487 -11 -14 -60 -16 -376 -16 -242 0 -365 3 -369 10 -4 6 -8 302 -8 658 -2
620 -3 647 -20 647 -15 0 -48 -77 -177 -415 -107 -279 -166 -421 -181 -432
-19 -16 -47 -18 -245 -18 -142 0 -232 4 -247 11 -31 14 -20 -10 -193 431 -79
203 -148 377 -154 388 -6 11 -16 17 -25 14 -13 -5 -15 -88 -15 -638 0 -478 -3
-635 -12 -644 -14 -14 -360 -17 -605 -5 l-143 6 0 1475 c0 1359 1 1477 17
1494 15 17 40 18 375 18 l359 0 15 -27z"/>
<path d="M2372 4208 l3 -783 240 0 c205 0 248 3 295 18 79 26 140 74 175 138
l30 54 3 553 c2 348 -1 566 -7 590 -16 57 -58 115 -110 150 -78 53 -136 62
-398 62 l-233 0 2 -782z"/>
</g>
</svg>
